<?xml version="1.0" standalone="no"?>
<!DOCTYPE svg PUBLIC "-//W3C//DTD SVG 20010904//EN"
 "http://www.w3.org/TR/2001/REC-SVG-20010904/DTD/svg10.dtd">
<svg version="1.0" xmlns="http://www.w3.org/2000/svg"
 width="240.000000pt" height="240.000000pt" viewBox="0 0 240.000000 240.000000"
 preserveAspectRatio="xMidYMid meet">
<metadata>
Created by potrace 1.11, written by Peter Selinger 2001-2013
</metadata>
<g transform="translate(0.000000,240.000000) scale(0.100000,-0.100000)"
fill="#000000" stroke="none">
<path d="M1063 1896 c-67 -50 -151 -109 -185 -130 -67 -42 -330 -176 -346
-176 -5 0 -32 -10 -61 -23 l-51 -22 387 -290 c212 -160 391 -295 397 -300 6
-6 53 -41 104 -79 50 -37 92 -71 92 -75 0 -4 -11 -13 -25 -19 -22 -10 -38 0
-212 130 -185 139 -256 187 -291 193 -9 2 -17 4 -17 5 0 5 -47 11 -100 14
-107 5 -232 -38 -317 -109 l-27 -23 388 -291 c213 -160 392 -291 398 -291 5 0
18 8 29 18 24 21 123 96 187 140 138 95 324 194 467 247 41 16 78 31 82 34 3
3 -45 44 -108 91 -63 47 -123 92 -134 101 -10 8 -31 24 -45 35 -60 43 -121 89
-131 99 -7 5 -22 18 -35 27 -13 9 -89 65 -168 125 -79 59 -150 113 -159 118
-17 11 -48 35 -66 50 -6 6 -37 29 -69 53 -63 47 -68 67 -20 67 22 0 52 -16
104 -57 327 -254 375 -281 499 -285 53 -1 104 3 133 12 94 28 232 116 211 133
-5 5 -36 28 -69 53 -33 24 -61 47 -63 52 -2 4 -8 7 -12 7 -5 0 -58 37 -118 83
-59 45 -121 91 -136 102 -50 36 -182 135 -295 220 -41 30 -79 54 -85 54 -6 -1
-66 -42 -133 -93z"/>
</g>
</svg>
